<?xml version="1.0" encoding="UTF-8"?>
<svg width="32" height="32" viewBox="0 0 32 32" xmlns="http://www.w3.org/2000/svg">
  <defs>
    <linearGradient id="faviconGradient" x1="0%" y1="0%" x2="100%" y2="100%">
      <stop offset="0%" style="stop-color:#1e3a8a;stop-opacity:1" />
      <stop offset="100%" style="stop-color:#3b82f6;stop-opacity:1" />
    </linearGradient>
  </defs>
  
  <!-- Fondo circular -->
  <circle cx="16" cy="16" r="15" fill="url(#faviconGradient)"/>
  <circle cx="16" cy="16" r="15" fill="none" stroke="white" stroke-width="2" opacity="0.3"/>
  
  <!-- Edificio simplificado -->
  <g transform="translate(8, 6)">
    <!-- Torres del edificio -->
    <rect x="0" y="8" width="4" height="12" fill="white" opacity="0.9" rx="1"/>
    <rect x="3" y="6" width="4" height="14" fill="white" rx="1"/>
    <rect x="6" y="4" width="4" height="16" fill="white" opacity="0.9" rx="1"/>
    <rect x="9" y="6" width="4" height="14" fill="white" opacity="0.8" rx="1"/>
    <rect x="12" y="8" width="4" height="12" fill="white" opacity="0.7" rx="1"/>
    
    <!-- Ventanas pequeñas -->
    <rect x="1" y="10" width="1" height="1" fill="#1e3a8a"/>
    <rect x="1" y="13" width="1" height="1" fill="#1e3a8a"/>
    <rect x="1" y="16" width="1" height="1" fill="#1e3a8a"/>
    
    <rect x="4" y="8" width="1" height="1" fill="#1e3a8a"/>
    <rect x="4" y="11" width="1" height="1" fill="#1e3a8a"/>
    <rect x="4" y="14" width="1" height="1" fill="#1e3a8a"/>
    <rect x="4" y="17" width="1" height="1" fill="#1e3a8a"/>
    
    <rect x="7" y="6" width="1" height="1" fill="#1e3a8a"/>
    <rect x="7" y="9" width="1" height="1" fill="#1e3a8a"/>
    <rect x="7" y="12" width="1" height="1" fill="#1e3a8a"/>
    <rect x="7" y="15" width="1" height="1" fill="#1e3a8a"/>
    <rect x="7" y="18" width="1" height="1" fill="#1e3a8a"/>
    
    <rect x="10" y="8" width="1" height="1" fill="#1e3a8a"/>
    <rect x="10" y="11" width="1" height="1" fill="#1e3a8a"/>
    <rect x="10" y="14" width="1" height="1" fill="#1e3a8a"/>
    <rect x="10" y="17" width="1" height="1" fill="#1e3a8a"/>
    
    <rect x="13" y="10" width="1" height="1" fill="#1e3a8a"/>
    <rect x="13" y="13" width="1" height="1" fill="#1e3a8a"/>
    <rect x="13" y="16" width="1" height="1" fill="#1e3a8a"/>
  </g>
  
  <!-- Indicador de simulación -->
  <circle cx="26" cy="6" r="4" fill="#ef4444"/>
  <text x="26" y="8" font-family="Arial, sans-serif" font-size="4" font-weight="bold" fill="white" text-anchor="middle">
    S
  </text>
</svg>
